/* XPM */
static char *_639413835868[] = {
/* columns rows colors chars-per-pixel */
"40 40 210 2 ",
"   c #23170B",
".  c #2F251B",
"X  c #37291C",
"o  c #353533",
"O  c #423E3F",
"+  c #41452E",
"@  c #434037",
"#  c #4C4D4A",
"$  c #484543",
"%  c #574C43",
"&  c #54534F",
"*  c #575749",
"=  c #4F5052",
"-  c #555554",
";  c #5A5752",
":  c #5A5A55",
">  c #5D5C5B",
",  c #5B5758",
"<  c #65594D",
"1  c #625A55",
"2  c #5E615B",
"3  c #626356",
"4  c #63625D",
"5  c #69655D",
"6  c #68695B",
"7  c #77685B",
"8  c #635F60",
"9  c #5F6362",
"0  c #646464",
"q  c #696663",
"w  c #666865",
"e  c #6A6966",
"r  c #656869",
"t  c #6A6A6A",
"y  c #67666B",
"u  c #726E64",
"i  c #716D6B",
"p  c #7F6F60",
"a  c #69726F",
"s  c #727365",
"d  c #74726B",
"f  c #79756D",
"g  c #7D7C6D",
"h  c #7A7E65",
"j  c #6C6C72",
"k  c #716F70",
"l  c #6F7374",
"z  c #747573",
"x  c #757679",
"c  c #7B7C7C",
"v  c #797A74",
"b  c #84786E",
"n  c #8D7C6D",
"m  c #807C76",
"M  c #887E74",
"N  c #89846A",
"B  c #8C8576",
"V  c #8C8B75",
"C  c #86837A",
"Z  c #8B8479",
"A  c #878678",
"S  c #99897A",
"D  c #91917B",
"F  c #96917A",
"G  c #7F8585",
"H  c #858585",
"J  c #8A8786",
"K  c #8D8A80",
"L  c #8B898B",
"P  c #86858A",
"I  c #928D83",
"U  c #908C8D",
"Y  c #939186",
"T  c #9A968A",
"R  c #9E9C8D",
"E  c #999689",
"W  c #8D8E92",
"Q  c #928D91",
"!  c #8E9295",
"~  c #969493",
"^  c #9D9C92",
"/  c #949E9C",
"(  c #9E9D9E",
")  c #9D9690",
"_  c #8B928A",
"`  c #A39A83",
"'  c #A39E8C",
"]  c #A69585",
"[  c #A39D92",
"{  c #A89E94",
"}  c #9BA192",
"|  c #A4A38E",
" . c #A5A688",
".. c #A6A494",
"X. c #A8A59D",
"o. c #A9A799",
"O. c #B4A999",
"+. c #B9B99D",
"@. c #9F9DA0",
"#. c #9EA3A6",
"$. c #AFACA3",
"%. c #A6A6A6",
"&. c #B5ACA2",
"*. c #B1ADAD",
"=. c #B6B4A2",
"-. c #BAB3A3",
";. c #BABAA3",
":. c #B2B1AC",
">. c #BCB5AD",
",. c #BDBCAD",
"<. c #B6B8AB",
"1. c #B4B4B3",
"2. c #B9B5B2",
"3. c #BCBBB3",
"4. c #B6B9BD",
"5. c #BBBABB",
"6. c #B6B6B8",
"7. c #C2B4A7",
"8. c #C6BCA7",
"9. c #C2BDB2",
"0. c #C1BEB9",
"q. c #CDBFB2",
"w. c #BDC0BD",
"e. c #BFC0B2",
"r. c #C3C1AC",
"t. c #C8C1AF",
"y. c #C4C4B5",
"u. c #CAC2B5",
"i. c #CACAB5",
"p. c #C4C3BC",
"a. c #CAC5BC",
"s. c #C7C9BA",
"d. c #CBCABB",
"f. c #D7CDBD",
"g. c #D4D4BD",
"h. c #DAD7BD",
"j. c #D7D6BB",
"k. c #BBBFC0",
"l. c #BCC2C2",
"z. c #C5C5C2",
"x. c #C7C8C3",
"c. c #CCCCC3",
"v. c #CCCCCC",
"b. c #C6C5C7",
"n. c #D2CDC5",
"m. c #D1CECA",
"M. c #CED3CD",
"N. c #D6D5C3",
"B. c #D9D5C4",
"V. c #DCDBC5",
"C. c #D4D3CC",
"Z. c #D8D5CC",
"A. c #D7D9C9",
"S. c #DDDCC9",
"D. c #CDCED0",
"F. c #D0CFD4",
"G. c #CFD0D4",
"H. c #D4D4D4",
"J. c #D8D5D0",
"K. c #DCDAD4",
"L. c #D4D5DA",
"P. c #D8D7DC",
"I. c #D6DADC",
"U. c #DCDCDA",
"Y. c #E2DCC4",
"T. c #E0DECB",
"R. c #E2DED3",
"E. c #E2DFDA",
"W. c #DFE0DD",
"Q. c #E3E2CC",
"!. c #EAE3CC",
"~. c #E8E8CB",
"^. c #E0E0C6",
"/. c #F3E7CF",
"(. c #E4E2D2",
"). c #EAE3D2",
"_. c #EAEAD3",
"`. c #E3E2DD",
"'. c #E9E6DB",
"]. c #EAE8DB",
"[. c #F2EADD",
"{. c #F6EED7",
"}. c #DCDCE2",
"|. c #E1DCE0",
" X c #DEE1E2",
".X c #E4E3E4",
"XX c #EAE6E2",
"oX c #E7ECE5",
"OX c #EBEAE5",
"+X c #E5E5EB",
"@X c #E6EAEA",
"#X c #ECECEB",
"$X c #F3EEE4",
"%X c #F1EEEA",
"&X c #EFF0EC",
"*X c #F3F1E4",
"=X c #F4F4ED",
"-X c #F8F5ED",
";X c #FDFBEC",
":X c #F3FBEE",
">X c #EDECF1",
",X c #F2EFF2",
"<X c #EFF5F3",
"1X c #F4F4F3",
"2X c #FAF7F2",
"3X c #F5F9F6",
"4X c #FBFBF5",
"5X c #F4F5F9",
"6X c #F7F9F8",
"7X c #FDFDFC",
/* pixels */
"h._.i.N.;Xy.a.c.b.9.m.0.m.q.3.p.p.p.p.w.x.x.x.x.v.w.<.x.w.p.C.:.0.x.>.[.(.(.N.V.",
"i.~.Q.Q.A.s 5 & 8 1 i $ , 1 5 1 4 > > 2 4 4 2 2 2 : 2 e - # a w ; d s o.B.(.Q.Q.",
"^.~.V.g.,.K c.J.i Q F.7.z.n.n.0.c.c.x.x.c.v.c.c.p.z.p.m.c.c.3.w *.n.$.^ T.S.S.^.",
"^.h.Q.(.y.X.7X7Xq %.7X5X7X%X%XXX2X2X3X3X4X2X3X3X&X7X3X&X4X7XK.# E.7XS.E ].V.S.V.",
"V.N.(.].9.~ `.`.k U b.b.F.m.R.%Xv.v.v.v.v.m.v.v.b.K.H.z.5.H.M.f X.$XC.D *XN.V.V.",
"(.A.S.R.,.[ -X7Xk 1 i - , $ O $ > : - ; : : - - - - - 9 - - 2 o :.2XE.E ].N.Q.V.",
"B.A.(.'.d.X.OX%XJ ) m.m.|.|.|.|.U.L.H.P.L.P.H.H.H.H.v.U.|.U.l.t 0.-XC.Y V.A._.~.",
"S.R.S.Z.9.^ $X7X8 %.7X,X2X,X5X5X7X6X6X6X6X7X2X1X&X7X7X#X#X7XH.- 2.XXc...(.Q.Q.g.",
"N.`.S.R.y.^ -XOX5 E 2XP.U P Q P P H H P H H P P L H G ( P.5Xv.= 2.-XZ.Y ].V.Q.V.",
"Z.(.S.R.s.} '.s.C X.XX>.8 [ *.P @.@.( @.( ( ( @.#.~ H c v.XXH.1 3.2XZ.Y ].V.S.^.",
"K.(.Z.Q.i.| ^.o.;X3.c.m.K ,X7X6X7X7X7X7X7X7X7X7X7X6Xv.c U.}.D.- 2.-XZ.Y ].V.S.V.",
"S.S.N.T.i.| V.D ;XR &.n.i |.,X#X>X#X#X>X#X>X>X>X1X7XH.y >X.XG.- 2.-XZ.Y _.V.S.Q.",
"S.V.S.Q.r. .^.D i.R A.W.* *X7X.X#X>X>X>X>X>X>X>X}.>XF.> ,X+XL.> 2.-XC.Y '.V.S.^.",
"Q.S.Q.~.;. .~.N j.D e.d.; *X2X#X>X>X>X>X>X>X>X>X,X7XL.8 >X+XF.- 3.2XZ.Y '.V.Q.^.",
"Q.A.Q.~.+. .~.N ~.F i.g.s OXXX#X#X>X>X>X>X>X>X>X+X>Xb.9 }. XF., 2.-XZ.Y _.V.S.^.",
"V.h.V.Q.;.o._.h + @ V.d.3 OX-X=X,X>X>X>X>X>X>X>X>X,XD.x +X+XG.- 2.1XZ.Y '.V.Q.V.",
"Y.h.V.Q.i.} oX3X2 _ 6XM.> XXXX,X#X#X#X%X#X#X&X>X&X<Xb.t I. XI.9 6.2XZ.Y '.S.Q.S.",
"Y.j.^.Q.i.} oX3Xa / <Xl.0 1X,XOX%X%X&X%X#X&X&X&X X6Xx.t @X@Xk.# 2.2XJ.Y ].Z.Q.S.",
"Y.h.^.~.s.} oX<Xx %.7Xl.l 6X7X5X1X=X1X1X1X=X=X1X6X7Xp.0 U.#Xv.r 2.2XH.Y ].S.T.S.",
"!.h.^.W.s.} oX3Xa / 7X4.t 4.F.F.D.H.H.C.C.H.C.C.c.H.5.C K.`.C.: 2.2XJ.Y ].A.T.Y.",
"!.h.Y.(.p.^ #X3XG #.6Xl.j j j j w w w w w w q q u 5 b 7 Y &.q.1 2.2XJ.E ].A.Q.S.",
"!.Y.S.(.p.^ oX6Xc ! 6X@X+X>X,X>X>X#X&X#X#X#X%X$X$Xn.q.{ S Z { < >.2XJ.I ].V.S.Q.",
"R.T.S.R.y.^ OX6Xx ! 5XI.+X}.+XL. X X XW.`.(.E.R.[ &.q.q.q.S S 7 2.2XH.I ].A.S.S.",
"R.T.T.R.y.^ OX6Xj @.6XI.+XL.>XP.}. X XW.W.W.E.R.M &.7.7.f.S 7 b >.2XJ.E ].V.Q.V.",
"T.T.Y.R.q.[ E.7Xq Q 7X}.>X>X}.5X@X@X@XoXOXOXXX[.Z.{ n < S n ] 7 2.2XJ.E '.S.S.Q.",
"T.Z.R.R.a.{ XX2Xm *.7X5.c P y j x z z l z f f f u b < X n S ] 7 >.2XJ.I ].Z.Q.S.",
"T.T.T.Y.q.{ $X$X1 ) 2Xb.y 1.k.k.1.1.1.1.:.:.:.:.>.&.{ .   % 7.p 2.2XH.I ].A.T.Y.",
"T.T.B.R.q.] /.B.M ] E.m.y >X5X7X6X3X6X6X4X4X4X4X7X'.n.1 M 9.XX% 2.2XZ.E ].V.T.T.",
"V.^.Y.!.9.` ).O.R.7.B.J.> @X<X X@X@X@XoXoXoXXXXX`.7Xv.5 7X7Xn.- 2.2XJ.Y '.V.S.Q.",
"B.~.h./.8.` /.F ;X-.9.Z.9 <X5X>X>X#X#XOX&XOXOX#XK.7XM.- E.b.5.e 2.2XJ.Y '.A.Q.S.",
"h.~.h.!.t.F /.N Y.` -.n.1 @X#X@X#X#X#X#X#X#X#X&X6XW.v.x @X&X#X# 6.2XC.E '.V.Q.V.",
"V._.h.!.t.] {.B 7.T a.Z.0 oX#X#XOX#XOXOX#XoX@X#X@X1XI.r  XI.L.= 6.2XZ._ '.V.S.Q.",
"V.S.Q._.=.| [.A *X^ a.m.e #X7X7X6X6X6X6X3X6X6X6X+X7XL.r .X@Xv.- w.1XK.^ ].N.Q.V.",
"V.V.Q.].y.' N.6 Z 4 2.p.i J.|.F.H.H.H.H.L.H.H.H.#X X%.r  X1XG.- <.*Xn.K '.N.Q.V.",
"_.V.N.V.;...;Xs.@ i 2XZ.8 e 8 y w e e w w w e w - 4 t c H.#Xx.: p.7XZ.Y _.Q.V.N.",
"h.Q._.(.,.' *X*Xf ^ 7X`.m.|.XXE.U.W.U.U.U.U.U.W.U..XK.`.oXoXw.: :.-Xn.Y W.(.Q.Q.",
"N.V.V.d.=.R *X4Xv [ -XE.2X7X-XE.:X:X=X:X=X:X=X-X4X:XW.`.'.4Xc.2 a.4XZ.[ y.i.V.^.",
"].V.+.D Y V y.S.; I '.Z.Z.b.m.m.c.c.c.d.d.c.c.d.y.A.A.A.c.A.e.* &.N.$.A Y ..d.h.",
"Q.V.e.E | g g s A u u ; 5 f m f s s s s s s s s 6 s s 6 2 3 A s f v g A V ..^.^.",
"N._.V.=.i.;.y.s.s.9.c.c.a.a.a.0.y.s.y.y.y.y.y.y.s.e.e.s.A.e.d.e.y.,.9.Z.,.t._.g."
};
