/* XPM */
static char *_639404954597[] = {
/* columns rows colors chars-per-pixel */
"40 40 128 2 ",
"   c #E69C1F",
".  c #EEAF17",
"X  c #E7A01E",
"o  c #EBA41C",
"O  c #ECAA1A",
"+  c #F0A61A",
"@  c #F1AE1E",
"#  c #EFB216",
"$  c #F2B615",
"%  c #F4BD13",
"&  c #F1B41E",
"*  c #F3BD1D",
"=  c #E68724",
"-  c #E68A24",
";  c #E88E23",
":  c #E49523",
">  c #E99423",
",  c #E69922",
"<  c #EB9C25",
"1  c #EC9C28",
"2  c #ECA321",
"3  c #EAAB25",
"4  c #EBA32A",
"5  c #ECAB2B",
"6  c #FCAD26",
"7  c #F3A529",
"8  c #F5AB2A",
"9  c #FCAE28",
"0  c #EDB527",
"q  c #EFB22E",
"w  c #FDB327",
"e  c #F1B920",
"r  c #F4B32D",
"t  c #FDB429",
"y  c #F2BC2F",
"u  c #FCBB2B",
"i  c #F5AB33",
"p  c #F5B136",
"a  c #FBB334",
"s  c #F2BC31",
"d  c #F1B73A",
"f  c #FCB539",
"g  c #FAB93F",
"h  c #F7C40F",
"j  c #F8C70E",
"k  c #FBCC0C",
"l  c #FBD00F",
"z  c #F6C210",
"x  c #FACD12",
"c  c #F5C41C",
"v  c #F6CB1C",
"b  c #F9CD1A",
"n  c #FBD313",
"m  c #FDDD16",
"M  c #FAD31A",
"N  c #FDDD18",
"B  c #F4C424",
"V  c #FCC42F",
"C  c #FBD120",
"Z  c #FCDF25",
"A  c #FBD32B",
"S  c #F4C131",
"D  c #FCC731",
"F  c #F3CB36",
"G  c #FBCB31",
"H  c #F5C83C",
"J  c #F6D436",
"K  c #FCD233",
"L  c #F6D837",
"P  c #FCDC36",
"I  c #FBD63A",
"U  c #F7DB38",
"Y  c #FCE02D",
"T  c #FCE133",
"R  c #FBE33A",
"E  c #FDEC3C",
"W  c #EFBA46",
"Q  c #F2B346",
"!  c #FBB840",
"~  c #F7B94C",
"^  c #FBBC4C",
"/  c #FABE51",
"(  c #F5D540",
")  c #FBD841",
"_  c #FAC554",
"`  c #F7CB50",
"'  c #F5C65F",
"]  c #FACB54",
"[  c #FBDD54",
"{  c #FBDE5D",
"}  c #FCE342",
"|  c #FCE54E",
" . c #FCE657",
".. c #FAC763",
"X. c #FACA66",
"o. c #FAC96A",
"O. c #F4D965",
"+. c #F9CD72",
"@. c #F9D574",
"#. c #FAD37C",
"$. c #F8DF79",
"%. c #FBE060",
"&. c #FBE069",
"*. c #FBE96C",
"=. c #FAE774",
"-. c #FBEA75",
";. c #FBE47E",
":. c #FAD789",
">. c #FADB8E",
",. c #FADC94",
"<. c #F9E485",
"1. c #FBEB87",
"2. c #FAEA8C",
"3. c #FBEE95",
"4. c #FAE59C",
"5. c #FBEC9E",
"6. c #FBEEA4",
"7. c #FAEBAD",
"8. c #FCF0AF",
"9. c #FCF1B5",
"0. c #FCF5C3",
"q. c #FCF6CB",
"w. c #FDF7D1",
"e. c #FDFADC",
"r. c #FCFBE5",
"t. c #FDFEEF",
"y. c #FDFEF0",
"u. c None",
/* pixels */
"u.u.u.u.u.u.u.u.u.u.u.u.y.w.5.&.I A x x x x x x u.u.u.u.u.u.u.u.u.u.u.u.u.u.u.u.",
"u.u.u.u.u.u.u.u.u.u.r.8.&.A x k k k k k k k k k k k x u.u.u.u.u.u.u.u.u.u.u.u.u.",
"u.u.u.u.u.u.u.u.t.9.{ M k k k k k k k k k k k k k k k k x u.u.u.u.u.u.u.u.u.u.u.",
"u.u.u.u.u.u.u.e.;.M k k k k k k k k k k k k k k k k k k k k x u.u.u.u.u.u.u.u.u.",
"u.u.u.u.u.u.q.[ k k k k k k j $ o   : :     X # z k k k k k k k u.u.u.u.u.u.u.u.",
"u.u.u.u.u.0.) k k k k k z o : : 1 7 8 9 8 7 7 < :   # x k k k k x u.u.u.u.u.u.u.",
"u.u.u.u.q.I k k k k z o : < 9 t t t t t t t t t t 7 : 2 z k k k k k u.u.u.u.u.u.",
"u.u.u.e.[ k k k k z , < 8 t t t w t t t t w t t t t t 8 , # k k k k k u.u.u.u.u.",
"u.u.u.;.k k k k % , 4 w t t t t t t w w t t t t t t t t t < . k k k k z u.u.u.u.",
"u.u.9.M k k k % , 7 t w t t t t t t t w t t t t t t t t t w 4 # k k k k % u.u.u.",
"u.u.[ k k k x , 7 t t t t t t t t t u G r t t t t t t t t t t 4 % k k k h u.u.u.",
"u.6.b k k k O 1 t t t t t t t t t t K E y w t t t t t t t t t t 5 j k k k * u.u.",
"u. .k k k h : t t t t t t t t t t u R E J 8 t t t t t t t t t t p * k k k h u.u.",
"u.K k k k O 7 t t t t t t t t t t K E E E s t t t t t t t t t t t d x k k k @ u.",
"O.l k k k , w w t t t t t t t w u R E E E L 8 t t t t w t t t t t g B k k k $ u.",
"A l k k % < w w t t t t t t t u K E E E E E S t t t t t t t t t t f H k k k % u.",
"n k k k $ 7 t t t t u V G K P P E E E E E E E R P K G V u t t t t t ` x k k h u.",
"k k k k o 8 t t t u R E } E E E E E E E E E E E E E E E J 8 t t t t ] M k k k   ",
"n k k x X 9 t t t t G E E E E E E E E E E E E E E E E R q 6 t t t t _ A k k k + ",
"N N m m 2 8 9 9 w w w G E E E E E E E E E E E E E E R r 8 t t t t t _ I k k k + ",
"N N N N 3 8 9 9 9 9 9 9 D E E E E E E E E E E E E R r 8 w 6 9 9 9 6 _ } m n n 2 ",
"N N N m 0 i 9 9 6 9 9 9 9 D E E E E E E E E E E R r 7 9 6 t 9 9 9 6 X.} m N N 2 ",
"N N N m B i 9 9 9 9 9 9 9 w P E E E E E E E E E F 7 9 9 9 9 9 9 6 9 @.T m N M > ",
"N N N N C Q w 9 9 9 9 9 w t R E E E E E E E E E J 7 9 9 9 w 9 9 6 a ;.Z N N c > ",
"u.N N N N W a 6 9 w 9 9 9 u E E E E E E E E E E U 7 9 9 9 9 9 9 6 ^ -.m N m * u.",
"u.N N N m F ~ 6 9 9 9 9 9 D E E E E E R E E E E R 8 9 9 9 w 9 9 6 :.| m N m 2 u.",
"u.N N N N C ' a 9 9 9 9 9 D E E E L s 8 G R E E E q 8 9 9 9 9 9 ! 2.Y N N b > u.",
"u.u.N N N N J ' 9 9 9 9 9 K E U s 7 9 9 9 u G R E S 8 9 9 9 9 t >. .m N N & u.u.",
"u.u.N N N N N O.^ 6 9 9 9 D S 8 8 9 9 9 9 9 9 u G 8 9 9 9 9 9 +.1.N N N b < u.u.",
"u.u.u.N N N N Z $.^ 6 9 9 9 9 9 9 9 9 9 9 9 9 9 8 9 9 9 9 9 o.6.T m N N 8 u.u.u.",
"u.u.u.u.N N N N T <./ 6 6 9 9 9 9 9 9 9 9 9 9 9 9 9 9 6 9 +.6.} m N m c   u.u.u.",
"u.u.u.u.M N N N m P 2.+.a 6 w 9 9 9 9 9 9 9 9 9 9 9 6 ! >.6.R m N m b < u.u.u.u.",
"u.u.u.u.u.b N m N m Y -.4...a 8 6 6 6 6 6 6 9 6 9 ! #.7.2.T m N N M 2 = u.u.u.u.",
"u.u.u.u.u.u.v N N N m N E 1.4.:...^ g f f ! ^ o.,.7.3.| N m m N M o ; u.u.u.u.u.",
"u.u.u.u.u.u.u.c N N N N N N R *.3.5.7.7.7.7.5.3.-.} N N m m N b < - u.u.u.u.u.u.",
"u.u.u.u.u.u.u.u.& M N m N N m N N N T } } R N N N N N N N m c > - u.u.u.u.u.u.u.",
"u.u.u.u.u.u.u.u.u.2 * M N N N N N m m m m m N N N N N m c 2 - u.u.u.u.u.u.u.u.u.",
"u.u.u.u.u.u.u.u.u.u.u.2 & b N N N m N N N N N N N M c 2 ; = u.u.u.u.u.u.u.u.u.u.",
"u.u.u.u.u.u.u.u.u.u.u.u.u.> 2 & * b b b b b c & 2 > ; = u.u.u.u.u.u.u.u.u.u.u.u.",
"u.u.u.u.u.u.u.u.u.u.u.u.u.u.u.u.= ; ; ; ; ; - = = u.u.u.u.u.u.u.u.u.u.u.u.u.u.u."
};
