/* XPM */
static char *_8385d381a1a4c73e293e4eff670dc5eKAWbDjC0yDtT6fHP[] = {
/* columns rows colors chars-per-pixel */
"40 40 149 2 ",
"   c None",
".  c #161616",
"X  c #181615",
"o  c #171917",
"O  c #1C1916",
"+  c #141719",
"@  c #14191D",
"#  c #1D1D1C",
"$  c #211C16",
"%  c #221E1E",
"&  c #1D201E",
"*  c #21211F",
"=  c #2E261D",
"-  c #161D22",
";  c #1C1D22",
":  c #151F2D",
">  c #221F20",
",  c #172127",
"<  c #1D2123",
"1  c #17242A",
"2  c #1B2229",
"3  c #232223",
"4  c #292525",
"5  c #2D2926",
"6  c #212529",
"7  c #2B272A",
"8  c #24282D",
"9  c #2C2B2C",
"0  c #372D26",
"q  c #302729",
"w  c #322D2B",
"e  c #34312A",
"r  c #3B332B",
"t  c #262C30",
"y  c #2C2E31",
"u  c #332F30",
"i  c #293038",
"p  c #333333",
"a  c #3B3432",
"s  c #373836",
"d  c #3D3932",
"f  c #3A3739",
"g  c #3B3A3A",
"h  c #43362F",
"j  c #43392C",
"k  c #433A30",
"l  c #483F33",
"z  c #423D39",
"x  c #494035",
"c  c #4D4538",
"v  c #4F4838",
"b  c #54453B",
"n  c #55493B",
"m  c #5E4C3D",
"M  c #3E3C41",
"N  c #374343",
"B  c #474646",
"V  c #4A4647",
"C  c #4C494A",
"Z  c #594A41",
"A  c #554D4E",
"S  c #545046",
"D  c #5B574A",
"F  c #454F52",
"G  c #4E5656",
"H  c #525454",
"J  c #56595B",
"K  c #5E5F5F",
"L  c #655544",
"P  c #685747",
"I  c #675847",
"U  c #685A46",
"Y  c #66514B",
"T  c #6C5D4D",
"R  c #765C4A",
"E  c #675C50",
"W  c #6C5B51",
"Q  c #75654E",
"!  c #7C6A4F",
"~  c #64605B",
"^  c #766656",
"/  c #7D6C54",
"(  c #7E725B",
")  c #5A6262",
"_  c #646366",
"`  c #696667",
"'  c #61666B",
"]  c #696768",
"[  c #666B6E",
"{  c #6D6C6D",
"}  c #6E7173",
"|  c #737375",
" . c #787573",
".. c #7B7B7D",
"X. c #816D53",
"o. c #8B7457",
"O. c #8A745A",
"+. c #8B785D",
"@. c #96775E",
"#. c #947B5E",
"$. c #8F7B60",
"%. c #947F63",
"&. c #9A7D62",
"*. c #897D77",
"=. c #807F7D",
"-. c #9E805F",
";. c #968063",
":. c #9C8062",
">. c #9F8768",
",. c #948875",
"<. c #A18763",
"1. c #A78861",
"2. c #AB8B64",
"3. c #A68A6A",
"4. c #AD8E6A",
"5. c #AD936E",
"6. c #B39069",
"7. c #B9956E",
"8. c #AC9277",
"9. c #AC977C",
"0. c #B29673",
"q. c #BF9C73",
"w. c #C49F71",
"e. c #C5A272",
"r. c #CAA476",
"t. c #C2A47C",
"y. c #CAA57A",
"u. c #CFAA7B",
"i. c #D1AE77",
"p. c #D2AD7B",
"a. c #D8AA7C",
"s. c #D7B17E",
"d. c #DAB57F",
"f. c #E0B57B",
"g. c #808080",
"h. c #888686",
"j. c #AA9D97",
"k. c #CAA781",
"l. c #D0A980",
"z. c #DBAE81",
"x. c #DDB883",
"c. c #DEB788",
"v. c #E7BD80",
"b. c #E8BF85",
"n. c #E8BB8A",
"m. c #EAC084",
"M. c #EEC389",
"N. c #F1C086",
"B. c #F0C488",
/* pixels */
"                                                                                ",
"                                                                                ",
"                                                                                ",
"                                                                                ",
"                                                                                ",
"                                        , , & , t i                             ",
"                                  ; % * 3 3 3 4 K { M -                         ",
"                                ; * 3 % * 3 3 p g.h.z # ;                       ",
"                            2 3 3 < # % 3 3 4 y ] ] s 4 >                       ",
"                            * # O o # # < B f g ` C 9 3 #                       ",
"                          * # . . o * # 3 p u e V B f # @                       ",
"                        , # . . o # # % < & 3 5 9 p f s 8                       ",
"                          o X O O O > < % % * & ; > 3 7 u                       ",
"                            X O O $ h Z $ O q c n m b s 2                       ",
"                            3 $ $ 5 m 3.o.L 0 m <.R h 4                         ",
"                            ^ I r = Q y.c.9.E &.d.Q x r                         ",
"                            / I T = X.f.u.j.*.t.y.,.E                           ",
"                            ( X.X.j X.f.M.x.z.m.y.8.8.                          ",
"                              %.+.o.2.d.M.M.M.N.y.6.t.                          ",
"                                r U 6.w.m.m.p.u.q.y.;.                          ",
"                                o * n &.a.m.u.:.#.5.                            ",
"                              O 3 3 * a P 2.e.b h                               ",
"                              # 3 5 % # O 3 F y                                 ",
"                            & & < e T q 7 4 N ) H                               ",
"                            < 3 4 X.a.3.n g S ~ ,.F K                           ",
"                            3 < * c ;.2.y.7.w.T ' ' | .. .J '                   ",
"                            3 3 # * k / e.n.z.0.^ A     [ { }                   ",
"                            < 4 3 4 7 e Z :.4.@.>.D                             ",
"                            < * < * 4 3 & e x X.Y                               ",
"                              8 4 5 9 < 4 9 y y                                 ",
"                              2 5 9 u < # 7 u y                                 ",
"                              3 4 9 w 3 3 7 y y                                 ",
"                            1 4 4 y 7 ; 3 7 y 8                                 ",
"                            # & 3 9 3   # < 4 1                                 ",
"                            , 3 4 3 ; ; * 4 4 <                                 ",
"                            ; < 6 4 2 , & < < < 1                               ",
"                                                                                ",
"                                                                                ",
"                                                                                ",
"                                                                                "
};
