/* XPM */
static char *result[] = {
/* columns rows colors chars-per-pixel */
"40 40 77 1 ",
"  c #0D0503",
". c #0E0906",
"X c #0E0A08",
"o c #120703",
"O c #120A06",
"+ c #190C06",
"@ c #140D0A",
"# c #1A0E0B",
"$ c #16110E",
"% c #1B120E",
"& c #171210",
"* c #1C1412",
"= c #1D1915",
"- c #1F1A18",
"; c #22130D",
": c #29150C",
"> c #2F190E",
", c #311A0E",
"< c #221612",
"1 c #291712",
"2 c #251914",
"3 c #2B1B14",
"4 c #241C19",
"5 c #2A1E1A",
"6 c #321E13",
"7 c #311F18",
"8 c #2E2016",
"9 c #25221D",
"0 c #2D231C",
"q c #342116",
"w c #382016",
"e c #34231C",
"r c #39261C",
"t c #36281C",
"y c #3A291D",
"u c #262120",
"i c #2D2523",
"p c #2D2927",
"a c #2F2B2B",
"s c #332621",
"d c #382721",
"f c #352B23",
"g c #3B2C23",
"h c #342D2A",
"j c #3B2F2A",
"k c #3B3027",
"l c #36302E",
"z c #3A312B",
"x c #363433",
"c c #3B3533",
"v c #3C3A39",
"b c #402B23",
"n c #402E29",
"m c #40332B",
"M c #403936",
"N c #433E3C",
"B c #46423E",
"V c #48413F",
"C c #464442",
"Z c #494443",
"A c #4D4B45",
"S c #4E4C49",
"D c #514E4C",
"F c #55514F",
"G c #534F51",
"H c #565555",
"J c #585656",
"K c #565856",
"L c #595856",
"P c #575A59",
"I c #5B5B5B",
"U c #605F5C",
"Y c #5F615F",
"T c #60615D",
"R c #5D5D60",
"E c #5F6060",
"W c #616161",
/* pixels */
"IIIIIUIIIYIIIIIIIIIIUIIIUIIIIIRIIIIIRIII",
"IIEIIIRIIIIIUIIIWWIIJRRWUIUIIIIIIIIIIIII",
"IIIIIIIIIIIIIIWIZxsiuuavGWRIRIIUIRIIUIII",
"IIIIIIIIIIIIRUCs*&*******lGWIIIIUIIIIIIR",
"IIIIEIIIIUIYIh*4&**&*****4<VEIIUIIIIIRII",
"IIIRIIIUIIILh**=@&*&-&*&@***NWIIUIRIIIII",
"IEUIIIIIIIYh%*@@&*=&*&**@&&%;VRIIIIIIUII",
"IIIIIIIRITV;%**=*&&*%<@@@&&&&4JIIIRIIIRI",
"IIUIIUIIRJ4#%*%$$55558%$@@@&#@cWIIIIIUUI",
"IIRIIIIIWN@%<*@O<steet1;<@@&&@<GEIIIIIII",
"IIIIIRIIYpO%*%O<8fhryf517<@@@@@NWIIIIRII",
"RIIIIIIIH*@%##*<ekgrrg1>71=oX@XaTIIIIIII",
"IIIIRIIWC.O%%*2<8kfryy36r75@XX 4IIIIYIII",
"YIIIIIIWx .@#2128kseyg36r55&@X @DUIIIIII",
"IIIIIIIU9*4*O4120zfetg13re0<X<<@xWIIIIIR",
"IIIUIUIT5OO@X411ezgewg37r80&.@@XxWIIIIII",
"UIIRIUIU4 .O.2328kg0qg36yq8$ O. cWIIIIIU",
"IIIIIIIWi ..X23<8kseqt26yq5$... BWIIIIII",
"IIIIIRIWx O.X=2<8khett1qyq2$OOO SIIIIIII",
"RIIIIIIWMo@@O=-24f0ewt3qyq2$OOO@JYIIIIRI",
"IIIIIIIEVooO@=999h9swt1qt8<$@.O%IIIIUIII",
"IIIUIRIEC+@O@*4=;fsdqq>6e8<O$.O5PIIIIIRI",
"IIIRIIIWV@@@#<5;<tfr8q36kl<$@@O5UIIRIIII",
"IIIIIIIWZX&O$=5;1ysfet33al5O*XO2IIIIIIII",
"IIIIRIIEC%**<*321tidrt31s04@2*@5PRIRIIRI",
"IIIIIPJEC2=94%5;1e0drye1fd4@94*iPPIJIIPI",
"HHHHHHJIN%==<%4<3eedrf7:ei<@4**5HHHHHGHH",
"JHHHHHHIN+$$;%543e9drgq,r8-@<&@<HPJJHHHH",
"PJHPHHHRN+#@;&52ee0rrs8,e8*@#@@5GPIJJJJI",
"JPIIPIPRNoOO;%4<3esdtt36yq=#*.o<IIJJPPJP",
"PPHHJPHINoo.#%4=8eefteq6wq=##Xo2GPJJJPJP",
"PPJPIIHRN+@.;$444i8dee3qy8*#@OO<HRJIRPPI",
"IIJIIPIWMo@o;&uui0idd766rq=@#OO;FIKPJIPJ",
"IIRJJIJRM+#&1@-4077dd73wrw=@3$#%FYIPIIII",
"IIJPIIPRjo&@<@42rsegr53wr8*@;@$+SIIPIPII",
"IIJRIPRUj#<#<X13rr3r71:6q5*.;#;#AUIIIJIP",
"IPIIIPPRd#%#@*hdjjjmfsebnjs@%#$+BUIIIIIJ",
"IIIIIIJRa@<#*SRPIIIPPIIIIITx@*2%ZIJIPIII",
"IIIJRIPRJGGGJIIIIIIIJRIIIIIIHKKLUIIIIIII",
"IIIIIJIIIIIUIJIIIIIIJIIIIIPPIIIILIPIIIII"
};
