/* XPM */
static char *_639413855629[] = {
/* columns rows colors chars-per-pixel */
"40 40 214 2 ",
"   c #050202",
".  c #0B0B0C",
"X  c #090708",
"o  c #120F0B",
"O  c #0E100F",
"+  c #16130E",
"@  c #0D0C11",
"#  c #100E13",
"$  c #131314",
"%  c #1A1614",
"&  c #1B1816",
"*  c #161519",
"=  c #1A171A",
"-  c #1C1A1A",
";  c #17181A",
":  c #211D1B",
">  c #1E201F",
",  c #25211D",
"<  c #29241E",
"1  c #2D291E",
"2  c #292417",
"3  c #36311E",
"4  c #352E1E",
"5  c #1E1D21",
"6  c #201E23",
"7  c #1F2120",
"8  c #252222",
"9  c #2A2621",
"0  c #2E2A24",
"q  c #2D2C2C",
"w  c #322D25",
"e  c #322D29",
"r  c #363226",
"t  c #3B3424",
"y  c #36322C",
"u  c #3A352B",
"i  c #3E392B",
"p  c #302E31",
"a  c #343332",
"s  c #3B3631",
"d  c #3D3934",
"f  c #3D3C3E",
"g  c #433D2C",
"h  c #463B28",
"j  c #433C33",
"k  c #483F32",
"l  c #443E38",
"z  c #47402D",
"x  c #4A422E",
"c  c #50452F",
"v  c #474134",
"b  c #4C4433",
"n  c #4F4834",
"m  c #46433E",
"M  c #4D433B",
"N  c #524936",
"B  c #544C3B",
"V  c #544939",
"C  c #5B533E",
"Z  c #57523E",
"A  c #4C494B",
"S  c #464545",
"D  c #514C40",
"F  c #534C4A",
"G  c #5C5443",
"H  c #5B5448",
"J  c #554F51",
"K  c #595958",
"L  c #4F5354",
"P  c #635B4B",
"I  c #635A47",
"U  c #625D58",
"Y  c #5E605F",
"T  c #656159",
"R  c #706959",
"E  c #5D5E62",
"W  c #6C6463",
"Q  c #6B6965",
"!  c #6D6D6B",
"~  c #656563",
"^  c #736B69",
"/  c #74726A",
"(  c #78766A",
")  c #6D6B70",
"_  c #757573",
"`  c #7A7673",
"'  c #7C7A74",
"]  c #7C7C7B",
"[  c #757574",
"{  c #6E736D",
"}  c #817D6B",
"|  c #837F74",
" . c #827F7B",
".. c #858074",
"X. c #86857C",
"o. c #8A867B",
"O. c #8C8A7E",
"+. c #8D8771",
"@. c #938D7C",
"#. c #7F8082",
"$. c #8B8684",
"%. c #8E8D82",
"&. c #8B8B88",
"*. c #928C83",
"=. c #938D8D",
"-. c #8E928C",
";. c #939285",
":. c #949489",
">. c #9A968C",
",. c #96988D",
"<. c #9C9B8D",
"1. c #8F9190",
"2. c #939493",
"3. c #949894",
"4. c #9E9C94",
"5. c #9C9C9C",
"6. c #A39C8E",
"7. c #A09E93",
"8. c #A29E9A",
"9. c #9CA19E",
"0. c #A3A295",
"q. c #A5A49C",
"w. c #A9A49D",
"e. c #ABAA9C",
"r. c #A7A79B",
"t. c #B0B29C",
"y. c #9E9EA2",
"u. c #A69DA0",
"i. c #A2A3A4",
"p. c #AAA5A2",
"a. c #AAAAA5",
"s. c #AAABAB",
"d. c #A8A8A9",
"f. c #B3AEAC",
"g. c #B6ADA8",
"h. c #ADB2AD",
"j. c #B4B3A3",
"k. c #B3B2AC",
"l. c #BBB3AD",
"z. c #BCBBAA",
"x. c #AFB1B0",
"c. c #B3B4B3",
"v. c #BCB6B4",
"b. c #BCBBB5",
"n. c #B6BAB9",
"m. c #BABBBA",
"M. c #C3BDB4",
"N. c #C1B4AE",
"B. c #BFC0AE",
"V. c #BEC2BB",
"C. c #BDC0B7",
"Z. c #C6C4B5",
"A. c #CBCBB4",
"S. c #C5C3BA",
"D. c #CAC7BF",
"F. c #CCCBBC",
"G. c #C7C7BB",
"H. c #D3CCB9",
"J. c #D5D5BD",
"K. c #D6D9BC",
"L. c #D9D9BE",
"P. c #CFD2B7",
"I. c #C3C6C4",
"U. c #CBCBC3",
"Y. c #CBCCCB",
"T. c #C6C8C8",
"R. c #D1CEC7",
"E. c #CED1C9",
"W. c #D5D4C3",
"Q. c #D8D6C4",
"!. c #D7D9C3",
"~. c #DCDCC5",
"^. c #D5D4CA",
"/. c #DAD6CD",
"(. c #DCDCC9",
"). c #D7DAC9",
"_. c #CBCFD0",
"`. c #D4D4D2",
"'. c #DBD6D2",
"]. c #DCDAD4",
"[. c #DEDDDC",
"{. c #D5D9D2",
"}. c #E0DFCA",
"|. c #E2DDD9",
" X c #E4DCD8",
".X c #DFE1CD",
"XX c #DEE1C6",
"oX c #DEE0D2",
"OX c #E1E1C6",
"+X c #E2E2CB",
"@X c #E6E9CE",
"#X c #E4E4D5",
"$X c #E8E6D5",
"%X c #EBEBD3",
"&X c #E5E3DB",
"*X c #EAE5DB",
"=X c #EBEDDB",
"-X c #E5E8D7",
";X c #DEDCE1",
":X c #E5E4E1",
">X c #EBEAE5",
",X c #E9EAE9",
"<X c #F3EBE5",
"1X c #F2EFE8",
"2X c #EDF1E9",
"3X c #F3F2E6",
"4X c #F5F3EC",
"5X c #FAF5EC",
"6X c #FDFCEC",
"7X c #F5F5F3",
"8X c #FAF6F2",
"9X c #F6FBF5",
"0X c #FDFBF4",
"qX c #FDFEFB",
/* pixels */
"OXL.J.6XE.r.9.s.s.y.i.u.u.u.g.N.u.u.u.u.u.p.p.u.v.8.y.n.i.x.y.s.j.4.Z.=XQ.@XJ.@X",
"OX~.P.J.X.Q ~ L E [ ) ) ) W W J } U W W W W W W U E Q [ E ] E J K T ' G.(.%X!.L.",
"L.L.OX%Xr.E.9X_.E T.;X;X X X<X X'. X X X;X'.'.'.`.;X:X[._.,Xi.' qX3X0.Z.Q.Q.~.OX",
"OXL.@X+X%.C.9Xn.E ;XqXqX8X;X<X8X<X<X8X<X8X8X8XqXqXqX7X7X7XqXi.! *X5X*.z.$XQ.OX+X",
"XXP.XX=X,.G.qX_.A i.d.u.N.v.N.N.N.N.N.g.g.f.N.N.k.h.s.c.n.v.$.$.&X0X0.^.6X~.K.A.",
"@XK..X=X-.C.2Xn.y._.m. .J M k k j j p 9 8 8 9 9 $ > - 8 * * ; ~ '.6X;.j.}.J.+X@X",
"L.K.XXoX,.I.9XI.c.;X0X$.j M k U l j 9 9 e 9 6 : . - $ * X . ; ] >X0Xg.W.%X}.(.~.",
"L.OX.XXX-.T.9XV.c.[.qX$.e U k k M j p 9 p j , % $ , O # * 7 ; ~ :X=Xr.M.(.}.}.OX",
"L.OXOXXX;.P.9Xh.3.,XqX| r H D V j j s s e 9 : % & $ $ % O ; . _ :X6X9.Z.$X~.OXOX",
"@XK.K.=X9.V.{.h.h.i.0Xq.r N I k l j s e w 2 : % & $ $ $ O > . _ :X5X<.A.$X~.(.OX",
"XX~.XX=X-.C.V.E.:X%.2X;.i Z C t l l s e 0 < : + & $ % $ O ; . _ :X5X0.Z.$X~.OXOX",
"J.@X.XoXX.).h.h.Y.3.0X/ z G c c M l s e 9 : : & & $ $ $ O ; . _ *X5X6.G.$X~.}.OX",
"~.~.!.(.4.oX,.{ -.X.0Xo.g b z C M l s 0 9 : - & > $ $ $ O - . _ :X5X7.Z.$X~.}.OX",
"OX~.!.=X3.S.9.-.k._ 5X<.3 x I C M l s 0 < : - & % % $ % O - . _ *X5X7.Z.$XL.OXOX",
"XXOX.X-X:.h.G.9.a.-.-X;.3 C I c k j y 0 1 , > % % $ $ $ O ; . _ :X6X7.Z.$X~.}.}.",
"~.OX!.).r.E.I.a q a.6X;.z C c n k j y e 1 2 & & > $ $ $ O ; O _ :X5X7.Z.$X~.}.}.",
"(.+X).-X,.V.qXn.d.4X>X .G I h N j g e 0 9 : : + = * * # # = . [ :X8X8.S.*XQ.(.}.",
"~.(.).-X,.V.qXn.3.1XqX>.G Z k N h g r 0 0 : : % = * * # # = . [ :X8X8.M.#X).~.}.",
"~.OX).-X,.V.qXn.c.,X>X| g D B b g g r 0 9 : : = 6 = * * $ ; . [ :X8X4.D.*X(.}.~.",
"~.}.).oX,.V.qXn.c.,X7X>.D P I h g h w 0 < : : - = = * * O * . ) :X4X8.S.#XQ.(.}.",
"(.+X).-X,.V.qXn.i.:X0X%.w h I I k g r 0 1 , : - 5 5 * * # * . _ :X8X5.D.*X(.}.}.",
"~.OX).&X3.V.9Xn.h.:X2X>.G I C I k g r 1 1 , : - * * # * $ * . _ |.8X4.M.#X/.}.}.",
"~.}.).#X,.V.qXn.s.:XqX'.M.6.C t N v u 0 , : : - * # # * $ ; . ' :X8X7.S.*X).}.+X",
"~.}.).#X,.V.qXn.x.&X:Xl.6.| V V N k u 0 , : - & * * # * $ ; O ' ;X4X4.S.$X(.}.}.",
"OX).=X].9.U.,XT.s.Y.0X0.D P N N g j j u 0 : % % 5 # # 8 . 5 f &.[.8Xp.U.*X(.}.}.",
"~.J..X=X;.G.qXc.c.7X7XX.i b N Z g g t t e 9 : : 5 * # 5 @ 5 f 1.[.0Xp.U.$X(.}.(.",
"}.J.Q.3X&.C.qXi.2.7X7X..M k N N k t w w e e 6 : 5 # @ * . 5 p #.[.0Xw.U.*X(.OX}.",
"+X~.).3X&.C.2Xs.2.I.0X*.D G V b g t w 0 e 0 6 - * @ # 5 X * $ { [.8Xw.U.*X(.+X}.",
"@X!.oXoX,.U.C.I.;X5.qXO.r I N N g g t e 9 < : : 5 5 5 * . 7 7 1.&X0X8.S.&X}.}.~.",
"XX!..XoX3.{.9.I.,X[ qX*.1 P N N g g i w < : : - 5 # * . # a q d.;X8X8.S.#X}.}.~.",
"~.(.oXoX-.{.i.3.c.Q qX=.t P B n z i r 0 9 : - ; 5 . # . 5 f 7 3.:X8X8.S.#X}.}.}.",
"~.%XXX=XX.{.C.Y 1.X.qXX.i n N N v i w 0 0 9 6 * 5 @ 5 * p S X { &X8X7.M. X}.+X~.",
"K.XX!.=X;.Y.f.d.`.` 8X$.h b G h g y 0 w 0 > & > , % + X = A q W |.0X>.S.=X}.+XOX",
"~.@X!.P.;.'.v.J A $.qX*.h g G N D l a y r > 2 2 O X S A X 0 l [ <XqX7.l.}.J.}.}.",
"P.!.XXoXg.D.>X=.^ :XqX*.b N n x d y 0 9 < > & > : J F d S a    .'.3X7.Z.$X}.OXL.",
"!.XX!.#X6.a.qXR.f.8X X| v G z Z v l d i y 9 > + F S y a 9 6 $ ~ &X3Xe.Z.#X@X+X~.",
"XX%XB.t.} E.qXb.l. X5X6.3 C 3 C b l u 1 , 2 & + d m e e $ o : $.0X5X0.r.t.H.~.+X",
"XXP.@.<.( e.M.%.v.'.6X;.2 P z z i r 1 > , w i d o m % X %     W g.j.' o.@.B.L.OX",
"+XA.t.e.O./ / ' p.l.N.@.R @.+.( | ' ( / ( O.>.>.;.| ` :.Q ( $. .X.>.o.6.t.A.~.OX",
"!.!.%XB.!.)././.l.^.M.Q.@XH.H.}.W./.).W.W.(./.F.^.-XS.'. X].U.'.U./.G.W.A.XX+X+X"
};
