/* XPM */
static char *fd8f370eb0e246aa9905c24281d3ba99kKwl1tRmdmDRYBXS[] = {
/* columns rows colors chars-per-pixel */
"40 40 83 1 ",
"  c None",
". c #030303",
"X c #0B0606",
"o c #0C0907",
"O c #06060A",
"+ c #0A070A",
"@ c #06090B",
"# c #0C0B0C",
"$ c #120B07",
"% c #130C0A",
"& c #0C0D12",
"* c #100E12",
"= c #0E1112",
"- c #0E161C",
"; c #121214",
": c #191012",
"> c #181817",
", c #12131A",
"< c #1A171A",
"1 c #16191E",
"2 c #19191C",
"3 c #251A12",
"4 c #2A1B14",
"5 c #221B1B",
"6 c #332216",
"7 c #33251C",
"8 c #3C291A",
"9 c #161621",
"0 c #151C21",
"q c #1A1A23",
"w c #1C1D2A",
"e c #211F29",
"r c #1E2223",
"t c #17232B",
"y c #1A232A",
"u c #21252B",
"i c #23292E",
"p c #2D2928",
"a c #362B27",
"s c #382B2A",
"d c #252A32",
"f c #292D36",
"g c #27323D",
"h c #44311E",
"j c #453223",
"k c #483527",
"l c #4D3B2C",
"z c #4D3C32",
"x c #513E36",
"c c #56412C",
"v c #624830",
"b c #634932",
"n c #704B33",
"m c #6F5132",
"M c #6E5136",
"N c #6F5237",
"B c #775633",
"V c #725235",
"C c #765937",
"Z c #765638",
"A c #2B3644",
"S c #2A3646",
"D c #625044",
"F c #775A46",
"G c #785A49",
"H c #885A3C",
"J c #8A643E",
"K c #8E684F",
"L c #AC754E",
"P c #AA7C4B",
"I c #B0814E",
"U c #B6854F",
"Y c #BB874F",
"T c #A68C7B",
"R c #CE8D5F",
"E c #D59A5B",
"W c #DEA05E",
"Q c #D59061",
"! c #C79B7F",
"~ c #ECA472",
"^ c #E6A97F",
"/ c #FAAA73",
"( c #BBA598",
/* pixels */
"                     -                  ",
"                ..O&1r-                 ",
"               .X###=tt0                ",
"               X####o=1dy               ",
"              .X@#####;dd               ",
"              .OO@##o##yi               ",
"              .$64o+=#=ru               ",
"              jLRRH:;#o2r               ",
"              T^/~!x=o%;2,              ",
"              DFnK(F#=#;2;              ",
"              ....%X&;#;2>              ",
"              ......&###>;              ",
"              ......#&#=>@              ",
"              ......&;o#X...            ",
"               .....@+......            ",
"               ...........o.            ",
"              7..........BPBk           ",
"              k*....O&O.hEEIm           ",
"              Mp,..;SA-.6UYJb           ",
"              sq1-<uff,O.Bba5           ",
"              w91ddddi1X.5eq,@          ",
"              wq,uuuiiqO..,,0&          ",
"              &,;ffffd2..O99gt          ",
"             &q,@0110q@..OqqyO          ",
"             =9,.#o#O@....,w,.          ",
"             99&..O..o.oO.qw@.          ",
"            ;,9@...oo#O.O*,,            ",
"            ll2&....@o#ooqwq            ",
"             Cc ...OO...$Mzu            ",
"                .O..+.oOX38             ",
"               O=..:&OoO+;O             ",
"               o:Oo;  Xo#2#             ",
"               O;X#   .X#>#             ",
"               Xo.X    X@o@             ",
"               ..O      ..@             ",
"               ..O      .O&             ",
"               ...      ..@             ",
"                ..      ..O             ",
"               ...      ...             ",
"               ..        ..             "
};
