/* XPM */
static char *_639428668355[] = {
/* columns rows colors chars-per-pixel */
"40 40 78 1 ",
"  c #050606",
". c #080707",
"X c #080807",
"o c #060708",
"O c #07080A",
"+ c #0B0B0B",
"@ c #110F0E",
"# c #12100F",
"$ c #18120F",
"% c #0D0E11",
"& c #130F10",
"* c #0F1013",
"= c #131314",
"- c #1A1411",
"; c #14151A",
": c #1A171A",
"> c #16191A",
", c #1A1A1C",
"< c #2C211A",
"1 c #36271D",
"2 c #161B21",
"3 c #1B1D23",
"4 c #1E1F28",
"5 c #201E21",
"6 c #1D2125",
"7 c #1D2428",
"8 c #1E282E",
"9 c #232124",
"0 c #22232C",
"q c #24292D",
"w c #362A22",
"e c #3E2E20",
"r c #312D2C",
"t c #392F2B",
"y c #3B302E",
"u c #272C31",
"i c #292E34",
"p c #292F39",
"a c #293036",
"s c #2C313A",
"d c #463423",
"f c #493326",
"g c #453628",
"h c #49382C",
"j c #4E3D33",
"k c #503F30",
"l c #574230",
"z c #524039",
"x c #634A34",
"c c #704C36",
"v c #6F5235",
"b c #6F533A",
"n c #765736",
"m c #73553A",
"M c #77593B",
"N c #2F3946",
"B c #2E3948",
"V c #625146",
"C c #775A49",
"Z c #875A3E",
"A c #896440",
"S c #8D6850",
"D c #AB744F",
"F c #A97B4C",
"G c #AF804F",
"H c #B58450",
"J c #BA8650",
"K c #A58B7A",
"L c #CD8C5F",
"P c #D4995B",
"I c #DD9F5E",
"U c #D48F61",
"Y c #C69A7E",
"T c #EBA371",
"R c #E5A87E",
"E c #FAA972",
"W c #BAA497",
"Q c None",
/* pixels */
"QQQQQQQQQQQQQQQQQQ6QQQQQQQQQQQQQQQQQQQQQ",
"QQQQQQQQQQQQQQQQQ286;++OQQQQQQQQQQQQQQQQ",
"QQQQQQQQQQQQQQQQ676>>-=++QQQQQQQQQQQQQQQ",
"QQQQQQQQQQQQQQQqa6>=====+QQQQQQQQQQQQQQQ",
"QQQQQQQQQQQQQQQuu>======*+QQQQQQQQQQQQQQ",
"QQQQQQQQQQQQQQQiq>==#>=+*+QQQQQQQQQQQQQQ",
"QQQQQQQQQQQQQQQq9===*-<1$OQQQQQQQQQQQQQQ",
"QQQQQQQQQQQQQQQq5==,,ZLUDfQQQQQQQQQQQQQQ",
"QQQQQQQQQQQQQQ29,==;zYTERKQQQQQQQQQQQQQQ",
"QQQQQQQQQQQQQQ,9,=;=CWScCVQQQQQQQQQQQQQQ",
"QQQQQQQQQQQQQQ><:-:=$-X   QQQQQQQQQQQQQQ",
"QQQQQQQQQQQQQQ>5==:=.++X  QQQQQQQQQQQQQQ",
"QQQQQQQQQQQQQQ=,==>=X+++oOQQQQQQQQQQQQQQ",
"QQQQQQQQQQQQ+o #-=>;  XX.+QQQQQQQQQQQQQQ",
"QQQQQQQQQQQQoO.  +==+   +QQQQQQQQQQQQQQQ",
"QQQQQQQQQQQQ+&+O  ++OOXOOQQQQQQQQQQQQQQQ",
"QQQQQQQQQQQdmFn$O  X+X++@1QQQQQQQQQQQQQQ",
"QQQQQQQQQQQmGIPf *>+O+X+:hQQQQQQQQQQQQQQ",
"QQQQQQQQQQQxAJD1+2NB,++2rbQQQQQQQQQQQQQQ",
"QQQQQQQQQQQ9txM+=2ssq9269yQQQQQQQQQQQQQQ",
"QQQQQQQQQQ=,405.%2iiiii330QQQQQQQQQQQQQQ",
"QQQQQQQQQQ;422%+=9iuuuu,54QQQQQQQQQQQQQQ",
"QQQQQQQQQQ8N44%+.3sspss>3;QQQQQQQQQQQQQQ",
"QQQQQQQQQQ+705&Oo=93335=24;QQQQQQQQQQQQQ",
"QQQQQQQQQQO202O.O*&===-#23;QQQQQQQQQQQQQ",
"QQQQQQQQQQ =05+%#++O@OOO;33QQQQQQQQQQQQQ",
"QQQQQQQQQQQQ33;=+#&=@O+O*42:QQQQQQQQQQQQ",
"QQQQQQQQQQQQ405&====@++ ;5jjQQQQQQQQQQQQ",
"QQQQQQQQQQQQqzb$+%#@+#OOQlMQQQQQQQQQQQQQ",
"QQQQQQQQQQQQQe<@%%#%@X@%QQQQQQQQQQQQQQQQ",
"QQQQQQQQQQQQQO,=%=+=:+@;%QQQQQQQQQQQQQQQ",
"QQQQQQQQQQQQQ=5=$#QQ,=+,*QQQQQQQQQQQQQQQ",
"QQQQQQQQQQQQQ;,==+QQQ:@,+QQQQQQQQQQQQQQQ",
"QQQQQQQQQQQQQ%-=+QQQQ+@:+QQQQQQQQQQQQQQQ",
"QQQQQQQQQQQQQ*OOQQQQQQ++OQQQQQQQQQQQQQQQ",
"QQQQQQQQQQQQQ;OOQQQQQQ%OOQQQQQQQQQQQQQQQ",
"QQQQQQQQQQQQQ*+OQQQQQQ+OOQQQQQQQQQQQQQQQ",
"QQQQQQQQQQQQQ+OOQQQQQQ+oQQQQQQQQQQQQQQQQ",
"QQQQQQQQQQQQQOX QQQQQQ+oOQQQQQQQQQQQQQQQ",
"QQQQQQQQQQQQQOOQQQQQQQQooQQQQQQQQQQQQQQQ"
};
