/* XPM */
static char *d2FsbCslMjgxJTI5Lg__[] = {
/* columns rows colors chars-per-pixel */
"40 40 202 2 ",
"   c #5E321D",
".  c #572D17",
"X  c #652D0E",
"o  c #6B2E0E",
"O  c #622D15",
"+  c #6B2F11",
"@  c #653114",
"#  c #6C3214",
"$  c #63341C",
"%  c #6B361B",
"&  c #6D3A1D",
"*  c #743C1C",
"=  c #7B3E1D",
"-  c #713213",
";  c #5E3320",
":  c #6C3722",
">  c #633A24",
",  c #6C3B24",
"<  c #6C3E29",
"1  c #733D23",
"2  c #7D3E22",
"3  c #7C411E",
"4  c #76401E",
"5  c #6F412A",
"6  c #66412E",
"7  c #734125",
"8  c #7C4223",
"9  c #73442A",
"0  c #7D4429",
"q  c #6F4837",
"w  c #754C3A",
"e  c #7B523A",
"r  c #7E5847",
"t  c #7F5849",
"y  c #7D5746",
"u  c #89451E",
"i  c #854623",
"p  c #894726",
"a  c #874925",
"s  c #8B4A24",
"d  c #864728",
"f  c #844A2C",
"g  c #8B4C2C",
"h  c #944E2A",
"j  c #8D532E",
"k  c #93532D",
"l  c #9C552D",
"z  c #97582F",
"x  c #9D592E",
"c  c #935026",
"v  c #844E32",
"b  c #884F31",
"n  c #8D5334",
"m  c #82523B",
"M  c #8D553A",
"N  c #8C5A3E",
"B  c #84583F",
"V  c #945532",
"C  c #9B5632",
"Z  c #945835",
"A  c #9D5A34",
"S  c #945638",
"D  c #945B3B",
"F  c #9C5C3A",
"G  c #A1572E",
"H  c #A15A2E",
"J  c #A15732",
"K  c #A25A33",
"L  c #A25E3A",
"P  c #A85E37",
"I  c #9F6037",
"U  c #96603E",
"Y  c #9E613E",
"T  c #A2613D",
"R  c #A86038",
"E  c #A86135",
"W  c #825645",
"Q  c #855A46",
"!  c #8B5C41",
"~  c #855C4B",
"^  c #8B5E4C",
"/  c #855748",
"(  c #935E42",
")  c #9A5F42",
"_  c #865F50",
"`  c #8D614A",
"'  c #966244",
"]  c #9D6243",
"[  c #95634A",
"{  c #9C654A",
"}  c #9C694A",
"|  c #8D6755",
" . c #936552",
".. c #966952",
"X. c #9B6B52",
"o. c #9F6F58",
"O. c #A36443",
"+. c #A76847",
"@. c #A3694B",
"#. c #AE724E",
"$. c #B4724F",
"%. c #AE7454",
"&. c #A6765B",
"*. c #B37554",
"=. c #B57A57",
"-. c #B97955",
";. c #B47B5A",
":. c #B87C5B",
">. c #8E6C62",
",. c #9B7260",
"<. c #AB7D62",
"1. c #A37E6C",
"2. c #B27D64",
"3. c #BC815C",
"4. c #AF8366",
"5. c #B48265",
"6. c #BB8365",
"7. c #B5846B",
"8. c #BB856B",
"9. c #BD896D",
"0. c #B5886B",
"q. c #A98370",
"w. c #B98770",
"e. c #B78876",
"r. c #BC8C72",
"t. c #B88B78",
"y. c #BF9676",
"u. c #C0846A",
"i. c #C18D72",
"p. c #C69276",
"a. c #CA9476",
"s. c #C3957B",
"d. c #CA947A",
"f. c #CC987E",
"g. c #CD9876",
"h. c #D09679",
"j. c #E4A47E",
"k. c #CF9B83",
"l. c #D19B82",
"z. c #D89F84",
"x. c #D6A68E",
"c. c #D2AA8F",
"v. c #DFA98A",
"b. c #DBA38C",
"n. c #D6A691",
"m. c #DEA792",
"M. c #D6A993",
"N. c #DBAA94",
"B. c #D6AC98",
"V. c #DFAF9A",
"C. c #DCB29C",
"Z. c #DDB89D",
"A. c #E6A785",
"S. c #E4A789",
"D. c #E3A98C",
"F. c #E8AB8B",
"G. c #E3AF96",
"H. c #ECB396",
"J. c #E4B29B",
"K. c #E9B69C",
"L. c #EDB99E",
"P. c #E5B599",
"I. c #F2BA9F",
"U. c #DCB5A3",
"Y. c #E4B6A3",
"T. c #E9B7A0",
"R. c #E3BBA6",
"E. c #EBBAA4",
"W. c #E3BCAA",
"Q. c #ECBEAA",
"!. c #F3BEA5",
"~. c #F3BFA9",
"^. c #EBC2AB",
"/. c #F5C5A6",
"(. c #FEC5A4",
"). c #FFC8A6",
"_. c #F4C4AC",
"`. c #FAC6A8",
"'. c #F6C9AE",
"]. c #FECBAD",
"[. c #EBC3B1",
"{. c #EDCABD",
"}. c #F2C6B1",
"|. c #F6CAB4",
" X c #FCCCB4",
".X c #F3CCBB",
"XX c #FBCDBA",
"oX c #F9C7B0",
"OX c #FED2B6",
"+X c #F6D2BE",
"@X c #FED3BD",
"#X c #F7CFC3",
"$X c #F9CFC3",
"%X c #F4D2C3",
"&X c #F9D2C2",
"*X c #FDD6C5",
"=X c #FDD5C3",
"-X c #FED9C5",
";X c #FAD5CA",
":X c #FFDACC",
">X c #FFDED1",
",X c #FFE0CF",
/* pixels */
"D.D.S.A.A.A.D.D.S.A.j.j.F.9.q [.Q.z.F.S.S.D.A.S.S.A.A.A.D.S.S.S.G.w.1 _.J.D.D.D.",
"{ ] T T T O.O.] ] T R L +.N > |.2.D O.O.T O.T T T T T T O.T O.O.{ ( 1 /.6.) ] O.",
"S C A J C C S S C l G l F n < XX;.k S F F C A A C A x C C C K S D f 1 ).;.n Z k ",
"F A J J H K A K K G H P P n , /.:.V A Z A J C J x K x J K J K C O.g * (.=.Z O.L ",
"A A K H K K A A A x G H J b 0  X;.V T A A K K K K J A K K J A F F b 3 (.=.n A F ",
"A K C A A C A A A K H K L b 9 _.*.V A z A A J J J J J A A A C A F n = (.3.V A A ",
"P L L L L F L Y K P A P L n 1 ~.3.Z T T L P K P L P K P L L L L O.V * (.3.A Y Y ",
"3 2 8 8 8 8 8 8 = i = 2 8 : > Q.} * * 8 8 8 2 2 2 2 8 2 8 8 8 8 7 1 & ].} & 0 7 ",
"Q Q ^ r | ~ t ~ ^ W ( / ~ t >.%Xq.y Q ~ ^ ~ ~ ^ /  ./ ~ _ Q ~ ~ _ t | .X1.y ` t ",
"=X=X*X{.;X%X>X.XXX=X=X.X:X>X#X%X+X.X=X&X.X:X#X%X$X;X&X$X$X=X=X&X$X>X#X.X;X.X-X=X",
"H.L.<...=XY.G.L.H.H.!.H.J.E.E.J.K.L.K.K.J.Q.4.[ $XT.T.T.K.L.K.K.T.J.J.G.E.K.P.L.",
"-.:.f m XX7.%.-.-.$.*.;.%.*.:.:.$.=.#.=.;.6.v b  X;.%.;.=.;.*.*.-.%.:.6.@.3.*.%.",
"l z 0 ' ].( Z z C J C Z A S C h z C l V V Z 4 U ].] n F S F V C l C C k j I I k ",
"H T * M OX] Z L G P C C A K J P H H L A T Y 4 U ].] F Z C K J J K A l A E z x x ",
"x T 0 (  X) S A J G l A L L x G G K P z Z I 4 U ).' F F S K P J K P x T c z I x ",
"A L * (  X} S F J G P A V K J G J H A C Z ] 4 U ].U S F L C J J K x K z I x x x ",
"T A 3 ' /.} F ) C P T A C R J J G J R l F +.* D ].] D Z R A l P J H P Z K x E x ",
"g U 4 N OXQ M M S V j V V g k K C k V k Z M * ] OXM b F S V z k l g S S Z j c c ",
": , . | .X6   > : : , , & % 9 O : % % : 5 >   Q [.w $ $   % 1 # % & 5     4 4 4 ",
"Y.Q.U.U.%X^.^.Y.Y.C.E.Y.U.^.W.W.Y.Y.E.U.W.W.U.{.*XU.W.W.^.Q.T.Y.Z.^.R.R.R.Z.Z.Z.",
"oX~. X|.Q.oXoX|.oX X_.~.@XU.1.+X|.|.|.^.|.|.[.}.Q.|.XX~.}._.E. XOXC.q.+X+X^.'./.",
"d.d.d.d.d.a.p.d.p.h.h.h.k.&.> ^.x.y.p.s.s.f.f.d.d.d.p.i.k.l.f.i.k.&.; ^.c.y.p.g.",
"S C h C T V C z C h C C F f 9 '.;.n V V Z z k z F S S L V V S C U j 4 ].4.j k z ",
"J K J J G H A H H J J J O.f 7 /.=.k I A x x T H H J J J J J L K U a 4 /.3.c I x ",
"A A K K J J J x x H H J F S 9 '.=.k T z K x H H K G H K J K P A L g 2 ~.:.F z K ",
"C L l A K P x A K C K A S v , '.3.k A z x K K x H G K K A A J C O.f 1  X%.V A A ",
"Z L S F A Z C A z A L F O.! < oX%.j Y A A I A K A A A A A F F S ) n 1 /.5.D Y C ",
"O.L T F ] F Y Y O.F L ) ) m <  X6.Z Y Y Y Y Y F F T T A F L T T ) ( 1 oX5.M Z Y ",
"# + @ X & & X o - o + # : O < _.N X # X % + # # # # # # + + + # + O : oXN X o - ",
"6.6.r.r.5.0.8.8.u.u.8.8.w.7.t.XXf.5.9.5.8.8.w.t.7.7.7.8.w.8.8.8.i.7.e..Xy.4.9.9.",
"@X@X^.^.-X+X-XOXXX*X=X@X@X*X.X.X=X X-X@X=X*X[.U.>X&X#X*X=X@X=X@X X@X%X{.,XOX@XOX",
"b.K...e -XC.n.N.m.m.x.G.M.M.G.N.N.N.N.N.B.U.,.w .XU.M.N.N.N.N.n.N.V.B.c.c.Z.x.G.",
"O.+.0 ' OXX.@.O.O.O.O.O.@.O.O.O.O.O.O.T +.@.0 ( OXX.] O.O.O.O.O.O.O.O.O.O.O.O.O.",
"x T 4 S `.[ S J A H J J A S J J S C H G A F 3 D ].[ S A C F J J J J C C A A A A ",
"A A 8 '  X{ S K K x K J S F K K A K H H A Y u ) XX[ F A F K K J K A L A A K A A ",
"x I 8 D  X[ F F A A K A F F J K F F H K F Y 4 (  X[ F K J F L A A J A A A x K z ",
"A Y 4 N '.{ ) C A S C J A F A A S Z G x F Y 2 N  X[ S F A Z C L C A A z A z Z I ",
"I Y 0 [ @X} ) F L L T L L ) L L ] F P L Y Y 0 ] @X..) F L L L L A T Y I I T I I ",
"u a % N _.e 8 p d i i i d d d i d i s u 8 f # N }.e 0 i d i i i i u i u u u a u ",
"a b 7 o.-XB 0 g d a d d f d p p i a s i i j 8 &.XX/ d d g f p i s a a a a a a a "
};
